<?xml version="1.0" encoding="utf-8"?>
<!-- Generator: Adobe Illustrator 17.0.0, SVG Export Plug-In . SVG Version: 6.00 Build 0)  -->
<!DOCTYPE svg PUBLIC "-//W3C//DTD SVG 1.1//EN" "http://www.w3.org/Graphics/SVG/1.1/DTD/svg11.dtd">
<svg version="1.1" xmlns="http://www.w3.org/2000/svg" xmlns:xlink="http://www.w3.org/1999/xlink" x="0px" y="0px" width="306.5px"
	 height="286.89px" viewBox="0 0 306.5 286.89" enable-background="new 0 0 306.5 286.89" xml:space="preserve">
<g id="Capa_2" display="none">
	<rect x="-459.5" y="-554.833" display="inline" fill="#91B4A2" width="766" height="841.723"/>
</g>
<g id="Capa_1">
	<g>
		<g>
			<circle fill="none" cx="90.383" cy="230.026" r="3.902"/>
			<circle fill="none" cx="90.383" cy="210.024" r="3.902"/>
			<circle fill="none" cx="90.383" cy="250.027" r="3.902"/>
			<path fill="none" d="M90.383,266.126c-2.155,0-3.902,1.747-3.902,3.902c0,2.077,1.628,3.759,3.675,3.879l3.909-5.12
				C93.544,267.245,92.101,266.126,90.383,266.126z"/>
			<path fill="none" d="M94.285,270.028c0-0.436-0.088-0.849-0.22-1.241l-3.909,5.12c0.077,0.005,0.149,0.023,0.227,0.023
				C92.538,273.93,94.285,272.183,94.285,270.028z"/>
			<circle fill="none" cx="90.383" cy="190.023" r="3.902"/>
			<circle fill="none" cx="90.383" cy="110.017" r="3.902"/>
			<circle fill="none" cx="90.383" cy="130.019" r="3.902"/>
			<circle fill="none" cx="90.383" cy="170.021" r="3.902"/>
			<circle fill="none" cx="90.383" cy="150.02" r="3.902"/>
			<path fill="#F7F7F7" d="M94.285,270.028c0,2.155-1.747,3.902-3.902,3.902c-0.078,0-0.15-0.018-0.227-0.023l-8.696,11.391v1.592
				h140.815c3.242,0,5.871-2.628,5.871-5.871V99.026c0-1.502-0.581-2.857-1.508-3.895L94.064,268.787
				C94.197,269.179,94.285,269.592,94.285,270.028z"/>
			<path fill="#FFFFFF" d="M222.275,93.156H81.459v192.143l8.696-11.391c-2.047-0.12-3.675-1.802-3.675-3.879
				c0-2.155,1.747-3.902,3.902-3.902c1.718,0,3.161,1.118,3.681,2.661L226.637,95.131C225.562,93.928,224.015,93.156,222.275,93.156
				z M90.383,253.929c-2.155,0-3.902-1.747-3.902-3.902c0-2.155,1.747-3.902,3.902-3.902c2.155,0,3.902,1.747,3.902,3.902
				C94.285,252.182,92.538,253.929,90.383,253.929z M90.383,233.928c-2.155,0-3.902-1.747-3.902-3.902s1.747-3.902,3.902-3.902
				c2.155,0,3.902,1.747,3.902,3.902S92.538,233.928,90.383,233.928z M90.383,213.926c-2.155,0-3.902-1.747-3.902-3.902
				s1.747-3.902,3.902-3.902c2.155,0,3.902,1.747,3.902,3.902S92.538,213.926,90.383,213.926z M90.383,193.925
				c-2.155,0-3.902-1.747-3.902-3.902c0-2.155,1.747-3.902,3.902-3.902c2.155,0,3.902,1.747,3.902,3.902
				C94.285,192.178,92.538,193.925,90.383,193.925z M90.383,173.923c-2.155,0-3.902-1.747-3.902-3.902
				c0-2.155,1.747-3.902,3.902-3.902c2.155,0,3.902,1.747,3.902,3.902C94.285,172.176,92.538,173.923,90.383,173.923z
				 M90.383,153.922c-2.155,0-3.902-1.747-3.902-3.902c0-2.155,1.747-3.902,3.902-3.902c2.155,0,3.902,1.747,3.902,3.902
				C94.285,152.175,92.538,153.922,90.383,153.922z M90.383,133.921c-2.155,0-3.902-1.747-3.902-3.902s1.747-3.902,3.902-3.902
				c2.155,0,3.902,1.747,3.902,3.902S92.538,133.921,90.383,133.921z M90.383,113.919c-2.155,0-3.902-1.747-3.902-3.902
				s1.747-3.902,3.902-3.902c2.155,0,3.902,1.747,3.902,3.902S92.538,113.919,90.383,113.919z"/>
		</g>
		<polyline fill="none" stroke="#CC665C" stroke-width="2.1757" stroke-miterlimit="10" points="102.116,219.047 126.717,186.121 
			143.964,202.584 159.517,171.725 184.801,180.012 217.571,150.02 		"/>
		<polyline fill="none" stroke="#D8C75E" stroke-width="2.1757" stroke-miterlimit="10" points="102.116,208.162 126.717,197.006 
			143.964,191.699 159.517,160.84 184.801,169.127 217.571,160.905 		"/>
		<g>
			<path fill="#CC665C" d="M209.085,259.789c2.588-3.777,4.105-8.347,4.105-13.271c0-9.785-5.979-18.171-14.481-21.711l-9.03,21.711
				L209.085,259.789z"/>
			<path fill="#D8C75E" d="M189.68,246.518l9.03-21.711c-2.781-1.158-5.83-1.8-9.03-1.8c-12.985,0-23.511,10.526-23.511,23.51
				c0,12.985,10.526,23.511,23.511,23.511c8.06,0,15.169-4.057,19.405-10.239L189.68,246.518z"/>
		</g>
		<g>
			<path fill="#D8C75E" d="M144.114,229.796c-3.254-3.222-7.479-5.53-12.325-6.41c-9.627-1.748-18.946,2.636-23.948,10.369
				l19.748,12.763L144.114,229.796z"/>
			<path fill="#CC665C" d="M127.589,246.518l-19.748-12.763c-1.636,2.529-2.812,5.415-3.384,8.563
				c-2.32,12.776,6.157,25.013,18.932,27.332c12.776,2.32,25.013-6.157,27.332-18.932c1.44-7.93-1.282-15.65-6.608-20.922
				L127.589,246.518z"/>
		</g>
		<rect x="102.116" y="110.018" fill="#CC665C" width="112.244" height="9.116"/>
		<rect x="102.117" y="121.991" fill="#CC665C" width="76.998" height="9.116"/>
		<rect x="102.116" y="133.965" fill="#CC665C" width="50.563" height="9.116"/>
		<g>
			<path fill="#346883" d="M233.842,161.993l-13.516-11.311c-1.686-1.411-2.973-1.079-3.38,1.161l-3.064,16.881
				c-0.117,0.647,0.906,0.9,2.064,0.511l16.58-5.57C233.705,163.268,234.364,162.43,233.842,161.993z"/>
			<g>
				<path fill="#CC665C" d="M216.863,150.161l-0.105,2.718l4.42-1.485l-1.843-2.083
					C218.759,148.831,216.994,149.437,216.863,150.161z"/>
			</g>
			
				<rect x="255.493" y="250.117" transform="matrix(0.3185 0.9479 -0.9479 0.3185 422.2901 -64.708)" fill="#BFBEBE" width="1.305" height="22.407"/>
			
				<rect x="189.686" y="202.234" transform="matrix(0.3185 0.9479 -0.9479 0.3185 365.9371 -82.0936)" fill="#CC665C" width="100.747" height="22.407"/>
			
				<rect x="239.215" y="211.747" transform="matrix(-0.3185 -0.9479 0.9479 -0.3185 109.3761 524.54)" fill="#346883" width="8.079" height="22.407"/>
			<path fill="#6A213C" d="M251.716,258.336l-29.471-87.726c-0.721-2.147,0.435-4.472,2.582-5.194l2.845-0.956
				c2.147-0.721,4.472,0.434,5.194,2.581l29.471,87.726c0.721,2.147-0.435,4.472-2.582,5.194l-2.845,0.956
				C254.763,261.638,252.437,260.483,251.716,258.336z"/>
			<path fill="#346883" d="M241.039,235.392l9.819,29.229l9.011-3.027l-9.819-29.229c-0.612-1.822-2.585-2.802-4.407-2.19
				l-2.414,0.811C241.408,231.598,240.427,233.57,241.039,235.392z"/>
		</g>
	</g>
</g>
</svg>
